<svg xmlns="http://www.w3.org/2000/svg" width="470.283" height="462.069" viewBox="0 0 470.283 462.069">
  <g id="Groupe_454" data-name="Groupe 454" transform="translate(-54.718 -353.224)">
    <path id="Tracé_951" data-name="Tracé 951" d="M940.327,775.353,753.358,592.662l6.41-6.409a9.365,9.365,0,0,0,0-13.213L647.087,460.359a9.365,9.365,0,0,0-13.213,0l-82.66,82.66a9.369,9.369,0,0,0,0,13.208L663.9,668.912a9.375,9.375,0,0,0,13.213,0l5.233-5.233L863.013,840.068a241.228,241.228,0,0,0,38.037-24.122A202.508,202.508,0,0,0,940.327,775.353Z" transform="translate(-415.327 -24.775)" fill="#fff" opacity="0.06"/>
    <rect id="Rectangle_240" data-name="Rectangle 240" width="92.062" height="170.733" rx="4.067" transform="translate(235.809 418.321) rotate(-44.999)" fill="#fff" opacity="0.06"/>
    <rect id="Rectangle_241" data-name="Rectangle 241" width="92.061" height="170.732" rx="4.067" transform="translate(54.718 599.415) rotate(-45.001)" fill="#fff" opacity="0.06"/>
  </g>
</svg>
