<svg xmlns="http://www.w3.org/2000/svg" width="111.852" height="65.835" viewBox="0 0 111.852 65.835">
  <g id="Logo" transform="translate(-388.611 -430.115)">
    <rect id="Rectangle_230" data-name="Rectangle 230" width="17.696" height="10.537" transform="translate(394.595 464.722)" fill="#30a6ca" opacity="0.4"/>
    <rect id="Rectangle_231" data-name="Rectangle 231" width="15.303" height="45.143" transform="translate(432.878 430.115)" fill="#30a6ca"/>
    <path id="Tracé_936" data-name="Tracé 936" d="M425.371,441.084V430.117l-36.58.02V442.7l16.75-.02-16.9,19.893V475.26h8.02Z" transform="translate(-0.017 -0.001)" fill="#30a6ca"/>
    <path id="Tracé_937" data-name="Tracé 937" d="M432.651,477.7h-4.322v-4.323a4.323,4.323,0,1,0-8.646,0V477.7H415.36a4.323,4.323,0,0,0,0,8.646h4.323v4.323a4.323,4.323,0,0,0,8.646,0v-4.323h4.322a4.323,4.323,0,1,0,0-8.646Z" transform="translate(-11.367 -19.735)" fill="#e25033"/>
    <path id="Tracé_938" data-name="Tracé 938" d="M421.785,466.832a4.323,4.323,0,0,1,4.323,4.323v4.323h4.323a4.323,4.323,0,1,1,0,8.646h-4.323v4.323a4.323,4.323,0,0,1-8.646,0v-4.323h-4.323a4.323,4.323,0,0,1,0-8.646h4.323v-4.323a4.323,4.323,0,0,1,4.323-4.323m0-2.161a6.492,6.492,0,0,0-6.484,6.484v2.162h-2.162a6.484,6.484,0,1,0,0,12.968H415.3v2.161a6.484,6.484,0,0,0,12.968,0v-2.161h2.161a6.484,6.484,0,1,0,0-12.968h-2.161v-2.162a6.492,6.492,0,0,0-6.484-6.484Z" transform="translate(-9.145 -17.514)" fill="#fff"/>
    <g id="Groupe_450" data-name="Groupe 450" transform="translate(388.611 482.435)">
      <path id="Tracé_939" data-name="Tracé 939" d="M401.76,539.922h-1.942a1.066,1.066,0,0,1-.216-.693q0-.879.694-.878a.641.641,0,0,1,.647.493l.724-.493a1.424,1.424,0,0,0-1.418-.925,1.666,1.666,0,0,0-1.664,1.741,1.8,1.8,0,0,0,.17.755h-.832v1.033h3.837Z" transform="translate(-393.331 -536.825)"/>
      <rect id="Rectangle_232" data-name="Rectangle 232" width="1.695" height="1.726" transform="translate(17.786 11.774)"/>
      <rect id="Rectangle_233" data-name="Rectangle 233" width="1.695" height="1.726" transform="translate(14.874 11.774)"/>
      <path id="Tracé_940" data-name="Tracé 940" d="M420.624,543.116a2.55,2.55,0,0,1,.416-1.495,1.5,1.5,0,0,1,1.31-.678,1.575,1.575,0,0,1,1.618,1.187l1.479-.709a3.172,3.172,0,0,0-3.021-1.988,3.317,3.317,0,0,0-2.558,1.079,3.756,3.756,0,0,0-.986,2.635,3.858,3.858,0,0,0,.339,1.619h-4.809a2.952,2.952,0,0,0,.37-1.788v-6.4h-1.711v6.488a2.7,2.7,0,0,1-.185,1.171,1.047,1.047,0,0,1-1.032.524h-4.085a2.82,2.82,0,0,0,.386-1.788v-3.452h-1.711v3.544a2.7,2.7,0,0,1-.185,1.171,1.072,1.072,0,0,1-1.048.524h-4.1a2.82,2.82,0,0,0,.386-1.788v-6.4h-1.726v6.488a2.7,2.7,0,0,1-.185,1.171,1.034,1.034,0,0,1-1.033.524h-5.24a3.712,3.712,0,0,1-2.111-.493,2.38,2.38,0,0,1-.879-2.112v-2.635h-1.71v2.635c0,2.913,1.633,4.361,4.9,4.361h32.013v-1.757h-4.346A2.373,2.373,0,0,1,420.624,543.116Z" transform="translate(-388.611 -536.397)"/>
      <path id="Tracé_941" data-name="Tracé 941" d="M481.114,539.922h-1.942a1.066,1.066,0,0,1-.215-.693q0-.879.693-.878a.641.641,0,0,1,.648.493l.724-.493a1.424,1.424,0,0,0-1.418-.925,1.666,1.666,0,0,0-1.664,1.741,1.8,1.8,0,0,0,.17.755h-.832v1.033h3.837Z" transform="translate(-433.551 -536.825)"/>
      <path id="Tracé_942" data-name="Tracé 942" d="M479.153,542.87a1.771,1.771,0,0,1-.648,1.6,3.088,3.088,0,0,1-1.618.293h-4.223a3.713,3.713,0,0,1-2.111-.493,2.382,2.382,0,0,1-.878-2.112v-2.635h-1.711v2.635c0,2.913,1.634,4.361,4.9,4.361h5.594a2.218,2.218,0,0,0,2.389-2.466v-7.474h-1.695Z" transform="translate(-428.831 -536.397)"/>
      <path id="Tracé_943" data-name="Tracé 943" d="M499.125,542.519a3.512,3.512,0,0,0,0,7.012,1.714,1.714,0,0,0,1.633-.786c-.031,1.2-.57,1.927-1.649,1.957v1.371c2.235,0,3.345-.925,3.345-2.758v-3.252A3.28,3.28,0,0,0,499.125,542.519Zm0,5.456a1.76,1.76,0,0,1-1.587-1.957c0-1.048.6-1.926,1.51-1.926.986,0,1.634.8,1.634,2A1.711,1.711,0,0,1,499.125,547.975Z" transform="translate(-442.945 -539.406)"/>
      <rect id="Rectangle_234" data-name="Rectangle 234" width="1.695" height="1.726" transform="translate(68.788 11.79)"/>
      <path id="Tracé_944" data-name="Tracé 944" d="M528.47,543.753a3.375,3.375,0,0,0-3.483,3.545,3.807,3.807,0,0,0,.031.416l.015.077H520.44a2.953,2.953,0,0,0,.37-1.788v-3.452H519.1V546.1a2.7,2.7,0,0,1-.185,1.171,1.047,1.047,0,0,1-1.033.524h-3.668v-5.24h-1.726v5.887a1.9,1.9,0,0,1-2.142,2.189v1.479c2.1,0,3.5-.909,3.76-2.559h11.576a3.271,3.271,0,0,0,2.789,1.371,3.371,3.371,0,0,0,3.452-3.56A3.427,3.427,0,0,0,528.47,543.753Zm.046,5.563a1.852,1.852,0,0,1-1.757-2.034,1.766,1.766,0,0,1,1.664-1.973,1.844,1.844,0,0,1,1.726,2.05A1.731,1.731,0,0,1,528.516,549.316Z" transform="translate(-450.311 -539.422)"/>
      <path id="Tracé_945" data-name="Tracé 945" d="M562.883,542.519a3.512,3.512,0,0,0,0,7.012,1.715,1.715,0,0,0,1.634-.786c-.031,1.2-.57,1.927-1.649,1.957v1.371c2.234,0,3.344-.925,3.344-2.758v-3.252A3.28,3.28,0,0,0,562.883,542.519Zm0,5.456a1.76,1.76,0,0,1-1.587-1.957c0-1.048.6-1.926,1.51-1.926.986,0,1.634.8,1.634,2A1.711,1.711,0,0,1,562.883,547.975Z" transform="translate(-475.26 -539.406)"/>
      <rect id="Rectangle_235" data-name="Rectangle 235" width="1.695" height="1.726" transform="translate(102.743 11.774)"/>
      <path id="Tracé_946" data-name="Tracé 946" d="M590.515,546.172a3.362,3.362,0,0,1-.123,1.11,1.092,1.092,0,0,1-1.094.509h-3.5c-.016-2.635-1.048-4.3-3.113-4.993a3.735,3.735,0,0,0-.925-.216c-.215-.015-.755-.031-1.6-.031v1.572a7.154,7.154,0,0,1,1.556.139c1.557.339,2.343,1.51,2.343,3.529h-5.579v1.757h11.189c1.711,0,2.574-.925,2.574-2.789v-4.207h-1.726Z" transform="translate(-484.844 -539.422)"/>
      <rect id="Rectangle_236" data-name="Rectangle 236" width="1.695" height="1.726" transform="translate(105.656 11.774)"/>
      <rect id="Rectangle_237" data-name="Rectangle 237" width="1.695" height="1.711" transform="translate(110.08)"/>
      <path id="Tracé_947" data-name="Tracé 947" d="M609.593,542.551v5.887a1.9,1.9,0,0,1-2.142,2.189v1.479c2.651,0,3.868-1.156,3.868-3.93v-5.625Z" transform="translate(-499.529 -539.422)"/>
    </g>
    <g id="Groupe_451" data-name="Groupe 451" transform="translate(456.596 430.116)">
      <path id="Tracé_948" data-name="Tracé 948" d="M549.609,463.858a.9.9,0,0,1-1.262,0L537.589,453.1a.894.894,0,0,1,0-1.261l7.892-7.892a.894.894,0,0,1,1.262,0L557.5,454.7a.894.894,0,0,1,0,1.261l-.612.612,9.354,9.354A21.59,21.59,0,0,0,568.2,462.7a26.422,26.422,0,0,0-.1-21.04,18.706,18.706,0,0,0-5.961-6.855,23.736,23.736,0,0,0-8.608-3.635,48.433,48.433,0,0,0-10.234-1.052H526.468v45.144h18.108a34.879,34.879,0,0,0,9.692-1.34,25.512,25.512,0,0,0,4.594-1.809l-8.753-8.753Zm-1.062-22.978,3.379-3.379a2.011,2.011,0,0,1,2.836,0l8.69,8.69a2.012,2.012,0,0,1,0,2.837l-3.379,3.379a2.011,2.011,0,0,1-2.836,0l-8.69-8.69A2.012,2.012,0,0,1,548.547,440.88Zm-2.384,25.437-3.379,3.379a2.012,2.012,0,0,1-2.837,0l-8.69-8.69a2.011,2.011,0,0,1,0-2.836l3.379-3.379a2.012,2.012,0,0,1,2.836,0l8.69,8.69A2.011,2.011,0,0,1,546.163,466.317Z" transform="translate(-526.468 -430.116)" fill="#30a6ca"/>
      <path id="Tracé_949" data-name="Tracé 949" d="M577.405,479.878l-9.354-9.354.612-.612a.894.894,0,0,0,0-1.262l-10.758-10.758a.894.894,0,0,0-1.262,0l-7.892,7.892a.9.9,0,0,0,0,1.261L559.51,477.8a.9.9,0,0,0,1.261,0l.5-.5,8.752,8.753a23.027,23.027,0,0,0,3.632-2.3A19.335,19.335,0,0,0,577.405,479.878Z" transform="translate(-537.631 -444.062)" fill="#fff"/>
      <rect id="Rectangle_238" data-name="Rectangle 238" width="8.79" height="16.301" rx="4.067" transform="translate(20.661 12.182) rotate(-44.999)" fill="#fff"/>
      <rect id="Rectangle_239" data-name="Rectangle 239" width="8.79" height="16.301" rx="4.067" transform="translate(3.371 29.472) rotate(-45.001)" fill="#fff"/>
    </g>
  </g>
</svg>
