<svg xmlns="http://www.w3.org/2000/svg" width="24.003" height="24" viewBox="0 0 24.003 24">
  <g id="Accueil" transform="translate(-74 -684.869)">
    <path id="Tracé_862" data-name="Tracé 862" d="M308.168,413.728l-6.375-4.862a5.639,5.639,0,0,0-6.824,0l-6.375,4.862a5.657,5.657,0,0,0-2.214,4.474v7.888A5.632,5.632,0,0,0,292,431.716h12.752a5.632,5.632,0,0,0,5.625-5.626V418.2A5.657,5.657,0,0,0,308.168,413.728Zm.339,12.362a3.754,3.754,0,0,1-3.75,3.751H292a3.754,3.754,0,0,1-3.75-3.751V418.2a3.772,3.772,0,0,1,1.476-2.983l6.376-4.862a3.758,3.758,0,0,1,4.548,0l6.376,4.862a3.772,3.772,0,0,1,1.476,2.983Z" transform="translate(-212.379 277.153)"/>
    <path id="Tracé_863" data-name="Tracé 863" d="M304.8,428.608h-2.1v-7.752c0-3.094-1.938-5.611-4.32-5.611s-4.32,2.517-4.32,5.611v7.752h-2.1a1.146,1.146,0,0,0,0,2.215h9.892l.852.009v-.009h2.1a1.146,1.146,0,0,0,0-2.215ZM301,428.6l-5.23-.057v-7.686c0-1.873,1.173-3.4,2.615-3.4s2.615,1.523,2.615,3.4Z" transform="translate(-212.379 274.588)"/>
  </g>
</svg>
