<svg xmlns="http://www.w3.org/2000/svg" width="20.3" height="20.3" viewBox="0 0 20.3 20.3">
  <g id="Icon_ionic-ios-arrow-dropright" data-name="Icon ionic-ios-arrow-dropright" transform="translate(-3.375 -3.375)">
    <path id="Tracé_966" data-name="Tracé 966" d="M14.692,10.257a.945.945,0,0,1,1.332,0l4.655,4.67a.941.941,0,0,1,.029,1.3l-4.587,4.6A.94.94,0,1,1,14.79,19.5l3.9-3.957-4-3.957A.931.931,0,0,1,14.692,10.257Z" transform="translate(-3.378 -2.022)"/>
    <path id="Tracé_967" data-name="Tracé 967" d="M3.375,13.525a10.15,10.15,0,1,0,10.15-10.15A10.148,10.148,0,0,0,3.375,13.525Zm1.562,0A8.585,8.585,0,0,1,19.6,7.454,8.585,8.585,0,1,1,7.454,19.6,8.515,8.515,0,0,1,4.937,13.525Z"/>
  </g>
</svg>
