<svg xmlns="http://www.w3.org/2000/svg" width="23.959" height="24" viewBox="0 0 23.959 24">
  <g id="Groupe_461" data-name="Groupe 461" transform="translate(-701.02 4)">
    <g id="Groupe_460" data-name="Groupe 460">
      <path id="Tracé_968" data-name="Tracé 968" d="M715.574,10.582l-1.546.988,1.011,1.581,1.031-.659,7.853-5.022,1.046-.669L723.958,5.22,722.42,6.2a17.293,17.293,0,0,1-4.876-7.646l1.528-.977L718.061-4l-1.068.683-7.81,4.995-1.051.672,1.01,1.581,1.537-.983a17.727,17.727,0,0,1,2.5,2.773L701.02,13.463l1.008,1.583L714.193,7.3A15.929,15.929,0,0,1,715.574,10.582ZM712.313,1.9l3.6-2.3a19.092,19.092,0,0,0,4.871,7.649l-1.449.926-2.124,1.359A18.234,18.234,0,0,0,712.313,1.9Z"/>
      <path id="Tracé_969" data-name="Tracé 969" d="M722.164,14.84H714.19a2.818,2.818,0,0,0-2.815,2.814V20h13.6V17.654A2.818,2.818,0,0,0,722.164,14.84Zm.939,3.284h-9.852v-.47a.94.94,0,0,1,.939-.938h7.974a.94.94,0,0,1,.939.938Z"/>
    </g>
  </g>
</svg>
