<svg xmlns="http://www.w3.org/2000/svg" xmlns:xlink="http://www.w3.org/1999/xlink" width="65" height="17" viewBox="0 0 65 17">
  <defs>
    <filter id="Ellipse_326" x="0" y="0" width="17" height="17" filterUnits="userSpaceOnUse">
      <feOffset dy='1' input="SourceAlpha"/>
      <feGaussianBlur stdDeviation="1.5" result="blur"/>
      <feFlood flood-opacity="0.161"/>
      <feComposite operator="in" in2="blur"/>
      <feComposite in="SourceGraphic"/>
    </filter>
    <filter id="Ellipse_327" x="12" y="0" width="17" height="17" filterUnits="userSpaceOnUse">
      <feOffset dy="1" input="SourceAlpha"/>
      <feGaussianBlur stdDeviation="1.5" result="blur-2"/>
      <feFlood flood-opacity="0.161"/>
      <feComposite operator="in" in2="blur-2"/>
      <feComposite in="SourceGraphic"/>
    </filter>
    <filter id="Ellipse_328" x="24" y="0" width="17" height="17" filterUnits="userSpaceOnUse">
      <feOffset dy="1" input="SourceAlpha"/>
      <feGaussianBlur stdDeviation="1.5" result="blur-3"/>
      <feFlood flood-opacity="0.161"/>
      <feComposite operator="in" in2="blur-3"/>
      <feComposite in="SourceGraphic"/>
    </filter>
    <filter id="Ellipse_329" x="36" y="0" width="17" height="17" filterUnits="userSpaceOnUse">
      <feOffset dy="1" input="SourceAlpha"/>
      <feGaussianBlur stdDeviation="1.5" result="blur-4"/>
      <feFlood flood-opacity="0.161"/>
      <feComposite operator="in" in2="blur-4"/>
      <feComposite in="SourceGraphic"/>
    </filter>
    <filter id="Ellipse_330" x="48" y="0" width="17" height="17" filterUnits="userSpaceOnUse">
      <feOffset dy='1' input="SourceAlpha"/>
      <feGaussianBlur stdDeviation="1.5" result="blur-5"/>
      <feFlood flood-opacity="0.161"/>
      <feComposite operator="in" in2="blur-5"/>
      <feComposite in="SourceGraphic"/>
    </filter>
  </defs>
  <g id="Groupe_456" data-name="Groupe 456" transform="translate(-179.5 -229.5)">
    <g transform="matrix(1, 0, 0, 1, 179.5, 229.5)" filter="url(#Ellipse_326)">
      <circle id="Ellipse_326-2" data-name="Ellipse 326" cx="4" cy="4" r="4" transform="translate(4.5 3.5)" fill="#e25033"/>
    </g>
    <g transform="matrix(1, 0, 0, 1, 179.5, 229.5)" filter="url(#Ellipse_327)">
      <circle id="Ellipse_327-2" data-name="Ellipse 327" cx="4" cy="4" r="4" transform="translate(16.5 3.5)" fill="#fff"/>
    </g>
    <g transform="matrix(1, 0, 0, 1, 179.5, 229.5)" filter="url(#Ellipse_328)">
      <circle id="Ellipse_328-2" data-name="Ellipse 328" cx="4" cy="4" r="4" transform="translate(28.5 3.5)" fill="#fff"/>
    </g>
    <g transform="matrix(1, 0, 0, 1, 179.5, 229.5)" filter="url(#Ellipse_329)">
      <circle id="Ellipse_329-2" data-name="Ellipse 329" cx="4" cy="4" r="4" transform="translate(40.5 3.5)" fill="#fff"/>
    </g>
    <g transform="matrix(1, 0, 0, 1, 179.5, 229.5)" filter="url(#Ellipse_330)">
      <circle id="Ellipse_330-2" data-name="Ellipse 330" cx="4" cy="4" r="4" transform="translate(52.5 3.5)" fill="#fff"/>
    </g>
  </g>
</svg>
