<svg xmlns="http://www.w3.org/2000/svg" width="12.717" height="10.595" viewBox="0 0 12.717 10.595">
  <path id="Icon_ionic-ios-share-alt" data-name="Icon ionic-ios-share-alt" d="M17.106,11.2,12.434,6.829a.239.239,0,0,0-.185-.079c-.146.007-.331.109-.331.265V9.207a.141.141,0,0,1-.119.136c-4.645.712-6.6,4.189-7.294,7.8-.026.142.166.275.255.162a8.444,8.444,0,0,1,7.02-3.556.164.164,0,0,1,.139.159v2.152a.284.284,0,0,0,.48.175L17.1,11.786a.366.366,0,0,0,.116-.278A.444.444,0,0,0,17.106,11.2Z" transform="translate(-4.502 -6.749)"/>
</svg>
