<svg xmlns="http://www.w3.org/2000/svg" xmlns:xlink="http://www.w3.org/1999/xlink" width="39.515" height="39.514" viewBox="0 0 39.515 39.514">
  <defs>
    <linearGradient id="linear-gradient" y1="0.5" x2="1" y2="0.5" gradientUnits="objectBoundingBox">
      <stop offset="0" stop-color="#785728"/>
      <stop offset="0.212" stop-color="#f5e486"/>
      <stop offset="0.36" stop-color="#b0803a"/>
      <stop offset="0.49" stop-color="#b0803a"/>
      <stop offset="0.647" stop-color="#f5e486"/>
      <stop offset="0.827" stop-color="#b0803a"/>
      <stop offset="1" stop-color="#f5e486"/>
    </linearGradient>
    <linearGradient id="linear-gradient-2" x1="-0.796" y1="-1.368" x2="2.54" y2="2.796" xlink:href="#linear-gradient"/>
    <linearGradient id="linear-gradient-3" x1="-6.454" y1="-1.652" x2="7.006" y2="2.513" xlink:href="#linear-gradient"/>
    <linearGradient id="linear-gradient-4" x1="-2.343" y1="-1.98" x2="2.254" y2="2.185" xlink:href="#linear-gradient"/>
    <linearGradient id="linear-gradient-5" x1="-0.931" y1="-1.219" x2="4.81" y2="5.965" xlink:href="#linear-gradient"/>
    <linearGradient id="linear-gradient-6" x1="-0.665" y1="-0.886" x2="5.077" y2="6.299" xlink:href="#linear-gradient"/>
    <linearGradient id="linear-gradient-7" x1="-1.666" y1="-2.139" x2="4.076" y2="5.046" xlink:href="#linear-gradient"/>
    <linearGradient id="linear-gradient-8" x1="-2.171" y1="-47.685" x2="4.43" y2="71.403" xlink:href="#linear-gradient"/>
    <linearGradient id="linear-gradient-9" x1="-0.958" y1="-2.295" x2="3.109" y2="5.428" xlink:href="#linear-gradient"/>
  </defs>
  <g id="Groupe_484" data-name="Groupe 484" transform="translate(-735.458 231.829)">
    <rect id="Rectangle_288" data-name="Rectangle 288" width="38.785" height="38.785" rx="12.318" transform="translate(735.823 -231.465)" fill="#050505"/>
    <path id="Tracé_981" data-name="Tracé 981" d="M762.861-192.315H747.57a12.125,12.125,0,0,1-12.112-12.112v-15.291a12.125,12.125,0,0,1,12.112-12.111h15.291a12.126,12.126,0,0,1,12.112,12.111v15.291A12.126,12.126,0,0,1,762.861-192.315Zm-15.291-37.7a10.307,10.307,0,0,0-10.295,10.295v15.291a10.306,10.306,0,0,0,10.295,10.295h15.291a10.306,10.306,0,0,0,10.295-10.295v-15.291a10.307,10.307,0,0,0-10.295-10.295Z" fill="url(#linear-gradient)"/>
    <g id="Groupe_479" data-name="Groupe 479">
      <path id="Tracé_982" data-name="Tracé 982" d="M743.852-209.294l2.93,7.372,2.945-7.372h3.428l-5.182,12.136h-2.447l-5.1-12.136Z" fill="url(#linear-gradient-2)"/>
      <path id="Tracé_983" data-name="Tracé 983" d="M757.9-209.294v12.136h-3.155v-12.136Z" fill="url(#linear-gradient-3)"/>
      <path id="Tracé_984" data-name="Tracé 984" d="M760.768-197.158v-12.136H765.6a4.875,4.875,0,0,1,3.227.99,3.7,3.7,0,0,1,1.183,3q0,4.121-4.3,4.12h-1.786v4.024Zm3.155-9.593v3.026h.531c.3,0,.528,0,.684-.008a3.344,3.344,0,0,0,.6-.088,1.309,1.309,0,0,0,.539-.226,1.233,1.233,0,0,0,.314-.434,1.7,1.7,0,0,0,.137-.725,1.908,1.908,0,0,0-.129-.748,1.332,1.332,0,0,0-.306-.459,1.106,1.106,0,0,0-.523-.233,4.455,4.455,0,0,0-.6-.089c-.166-.01-.4-.016-.716-.016Z" fill="url(#linear-gradient-4)"/>
    </g>
    <g id="Groupe_482" data-name="Groupe 482">
      <g id="Groupe_481" data-name="Groupe 481">
        <path id="Tracé_985" data-name="Tracé 985" d="M755.215-228.484l.84,2.586h2.719l-2.2,1.6.84,2.586-2.2-1.6-2.2,1.6.84-2.586-2.2-1.6h2.719Z" fill="url(#linear-gradient-5)"/>
        <g id="Groupe_480" data-name="Groupe 480">
          <path id="Tracé_986" data-name="Tracé 986" d="M746.605-225.1l.84,2.586h2.719l-2.2,1.6.84,2.586-2.2-1.6-2.2,1.6.84-2.586-2.2-1.6h2.719Z" fill="url(#linear-gradient-6)"/>
          <path id="Tracé_987" data-name="Tracé 987" d="M763.826-225.1l.84,2.586h2.719l-2.2,1.6.84,2.586-2.2-1.6-2.2,1.6.84-2.586-2.2-1.6h2.719Z" fill="url(#linear-gradient-7)"/>
        </g>
      </g>
    </g>
    <g id="Groupe_483" data-name="Groupe 483">
      <rect id="Rectangle_289" data-name="Rectangle 289" width="5.395" height="0.356" transform="translate(752.518 -212.796)" fill="url(#linear-gradient-8)"/>
      <path id="Tracé_988" data-name="Tracé 988" d="M759.453-217s-.564.033-.752.362a.821.821,0,0,0-.01.625l-.8.421a.5.5,0,0,1,.007.078.429.429,0,0,1-.429.428.428.428,0,0,1-.428-.428.428.428,0,0,1,.428-.429.421.421,0,0,1,.062.005l.059-.59a.793.793,0,0,0,.492-.344,1.038,1.038,0,0,0-.109-.827s-.562.058-.735.4a.755.755,0,0,0-.007.551l-.44.4a.422.422,0,0,1,.022.134.428.428,0,0,1-.429.428.428.428,0,0,1-.429-.428.429.429,0,0,1,.1-.277l-.513-.988a.643.643,0,0,0,.145-.377c0-.379-.475-.687-.475-.687s-.474.308-.474.687a.643.643,0,0,0,.145.377l-.513.988a.428.428,0,0,1,.1.277.427.427,0,0,1-.428.428.428.428,0,0,1-.429-.428.423.423,0,0,1,.022-.134l-.441-.4a.754.754,0,0,0-.006-.551c-.173-.337-.735-.4-.735-.4a1.041,1.041,0,0,0-.11.827.8.8,0,0,0,.493.344l.059.59a.422.422,0,0,1,.062-.005.429.429,0,0,1,.428.429.428.428,0,0,1-.428.428.429.429,0,0,1-.429-.428.488.488,0,0,1,.007-.078l-.8-.421a.812.812,0,0,0-.01-.625c-.187-.329-.752-.362-.752-.362a1.044,1.044,0,0,0-.072.832.819.819,0,0,0,.534.327l1.079,2.781h5.4l1.079-2.781a.82.82,0,0,0,.534-.327A1.043,1.043,0,0,0,759.453-217Zm-8.2.684a.2.2,0,0,1-.2-.2.2.2,0,0,1,.2-.2.2.2,0,0,1,.2.2A.2.2,0,0,1,751.258-216.318Zm6.4,2.2a.157.157,0,0,1,.157.157.157.157,0,0,1-.157.157.157.157,0,0,1-.157-.157A.157.157,0,0,1,757.659-214.117Zm-.815,0a.157.157,0,0,1,.157.157.157.157,0,0,1-.157.157.157.157,0,0,1-.157-.157A.158.158,0,0,1,756.844-214.117Zm-.814,0a.157.157,0,0,1,.157.157.157.157,0,0,1-.157.157.157.157,0,0,1-.157-.157A.157.157,0,0,1,756.03-214.117Zm-.815-3.976a.2.2,0,0,1,.2.2.2.2,0,0,1-.2.2.2.2,0,0,1-.2-.2A.2.2,0,0,1,755.215-218.093Zm0,1.651.3.424-.3.423-.3-.423Zm.157,2.482a.157.157,0,0,1-.157.157.157.157,0,0,1-.157-.157.158.158,0,0,1,.157-.157A.157.157,0,0,1,755.372-213.96Zm-.971-.157a.157.157,0,0,1,.157.157.157.157,0,0,1-.157.157.157.157,0,0,1-.157-.157A.157.157,0,0,1,754.4-214.117Zm-.815,0a.157.157,0,0,1,.157.157.157.157,0,0,1-.157.157.157.157,0,0,1-.157-.157A.158.158,0,0,1,753.586-214.117Zm-.814,0a.158.158,0,0,1,.157.157.157.157,0,0,1-.157.157.157.157,0,0,1-.157-.157A.157.157,0,0,1,752.772-214.117Zm4.967.843h-5.048a.089.089,0,0,1-.088-.089.089.089,0,0,1,.088-.088h5.048a.089.089,0,0,1,.089.088A.089.089,0,0,1,757.739-213.274Zm1.426-3.044a.2.2,0,0,1-.2-.2.2.2,0,0,1,.2-.2.2.2,0,0,1,.2.2A.2.2,0,0,1,759.165-216.318Z" fill="url(#linear-gradient-9)"/>
    </g>
  </g>
</svg>
