<svg xmlns="http://www.w3.org/2000/svg" width="24.144" height="29.176" viewBox="0 0 24.144 29.176">
  <g id="Groupe_519" data-name="Groupe 519" transform="translate(-37 -839)">
    <rect id="Rectangle_318" data-name="Rectangle 318" width="10.916" height="6.499" transform="translate(40.681 860.346)" fill="#30a6ca" opacity="0.4"/>
    <path id="Tracé_998" data-name="Tracé 998" d="M411.3,436.882v-6.765l-22.563.012v7.748l10.332-.012-10.422,12.271v7.827h4.947Z" transform="translate(-351.645 408.883)" fill="#30a6ca"/>
    <path id="Tracé_999" data-name="Tracé 999" d="M424.37,474.386H421.7V471.72a2.666,2.666,0,1,0-5.333,0v2.666H413.7a2.666,2.666,0,0,0,0,5.333h2.667v2.667a2.666,2.666,0,0,0,5.333,0v-2.667h2.666a2.666,2.666,0,1,0,0-5.333Z" transform="translate(-367.227 381.792)" fill="#e25033"/>
    <path id="Tracé_1000" data-name="Tracé 1000" d="M415.987,466a2.667,2.667,0,0,1,2.667,2.667v2.666h2.666a2.666,2.666,0,1,1,0,5.333h-2.666v2.667a2.666,2.666,0,0,1-5.333,0V476.67h-2.667a2.666,2.666,0,0,1,0-5.333h2.667V468.67A2.667,2.667,0,0,1,415.987,466m0-1.333a4,4,0,0,0-4,4V470h-1.333a4,4,0,1,0,0,8h1.333v1.333a4,4,0,0,0,8,0V478h1.333a4,4,0,1,0,0-8h-1.333V468.67a4,4,0,0,0-4-4Z" transform="translate(-364.176 384.841)" fill="#fff"/>
  </g>
</svg>
